Normalized EMG Linear Envelopes
nRows=59
nColumns=17

endheader
time	        VM	        VL	        RF	       GRA	        TA	   ADDLONG	   SEMIMEM	      BFLH	        GM	        GL	       TFL	   GLUTMAX	   GLUTMED	      PIRI	    OBTINT	        QF	
1.55	  0.029767	  0.026029	  0.080120	  0.111322	  0.253491	  0.112731	  0.019319	  0.026547	  0.014040	  0.013753	  0.041670	  0.020040	  0.251676	  0.301661	  0.965672	  0.074310	
1.5505	  0.029735	  0.026001	  0.079443	  0.110144	  0.251765	  0.112001	  0.019017	  0.025971	  0.013757	  0.013655	  0.040976	  0.020742	  0.255736	  0.304152	  0.964971	  0.075631	
1.551	  0.029708	  0.025980	  0.078782	  0.108978	  0.250040	  0.111256	  0.018732	  0.025403	  0.013476	  0.013556	  0.040294	  0.021465	  0.259797	  0.306622	  0.964219	  0.076964	
1.5515	  0.029686	  0.025964	  0.078138	  0.107824	  0.248315	  0.110496	  0.018465	  0.024842	  0.013199	  0.013458	  0.039623	  0.022210	  0.263857	  0.309069	  0.963417	  0.078309	
1.552	  0.029669	  0.025955	  0.077510	  0.106681	  0.246590	  0.109721	  0.018216	  0.024289	  0.012924	  0.013359	  0.038963	  0.022978	  0.267913	  0.311492	  0.962568	  0.079666	
1.5525	  0.029658	  0.025951	  0.076897	  0.105550	  0.244868	  0.108930	  0.017986	  0.023745	  0.012653	  0.013260	  0.038315	  0.023768	  0.271965	  0.313886	  0.961674	  0.081034	
1.553	  0.029652	  0.025954	  0.076300	  0.104430	  0.243146	  0.108125	  0.017776	  0.023209	  0.012385	  0.013161	  0.037678	  0.024582	  0.276009	  0.316249	  0.960735	  0.082413	
1.5535	  0.029652	  0.025963	  0.075719	  0.103322	  0.241427	  0.107304	  0.017585	  0.022682	  0.012122	  0.013063	  0.037052	  0.025418	  0.280045	  0.318579	  0.959753	  0.083803	
1.554	  0.029657	  0.025978	  0.075153	  0.102226	  0.239709	  0.106468	  0.017414	  0.022164	  0.011862	  0.012964	  0.036438	  0.026278	  0.284069	  0.320874	  0.958728	  0.085204	
1.5545	  0.029668	  0.025999	  0.074602	  0.101142	  0.237994	  0.105617	  0.017265	  0.021656	  0.011606	  0.012865	  0.035836	  0.027162	  0.288081	  0.323129	  0.957663	  0.086615	
1.555	  0.029684	  0.026025	  0.074066	  0.100069	  0.236281	  0.104752	  0.017136	  0.021158	  0.011355	  0.012767	  0.035245	  0.028069	  0.292079	  0.325344	  0.956557	  0.088035	
1.5555	  0.029706	  0.026058	  0.073544	  0.099008	  0.234570	  0.103872	  0.017030	  0.020670	  0.011108	  0.012668	  0.034665	  0.029001	  0.296060	  0.327515	  0.955410	  0.089465	
1.556	  0.029733	  0.026096	  0.073038	  0.097960	  0.232862	  0.102978	  0.016945	  0.020193	  0.010866	  0.012570	  0.034098	  0.029957	  0.300022	  0.329641	  0.954223	  0.090904	
1.5565	  0.029767	  0.026141	  0.072545	  0.096924	  0.231156	  0.102071	  0.016884	  0.019727	  0.010628	  0.012472	  0.033541	  0.030937	  0.303963	  0.331719	  0.952996	  0.092351	
1.557	  0.029805	  0.026191	  0.072066	  0.095901	  0.229453	  0.101151	  0.016846	  0.019272	  0.010396	  0.012374	  0.032997	  0.031942	  0.307882	  0.333746	  0.951729	  0.093807	
1.5575	  0.029850	  0.026246	  0.071601	  0.094892	  0.227753	  0.100219	  0.016832	  0.018828	  0.010170	  0.012277	  0.032464	  0.032972	  0.311776	  0.335723	  0.950421	  0.095271	
1.558	  0.029899	  0.026307	  0.071150	  0.093897	  0.226057	  0.099274	  0.016843	  0.018397	  0.009949	  0.012179	  0.031942	  0.034027	  0.315642	  0.337645	  0.949072	  0.096741	
1.5585	  0.029955	  0.026373	  0.070711	  0.092916	  0.224364	  0.098319	  0.016878	  0.017978	  0.009733	  0.012083	  0.031432	  0.035107	  0.319479	  0.339513	  0.947682	  0.098219	
1.559	  0.030016	  0.026445	  0.070285	  0.091951	  0.222675	  0.097353	  0.016939	  0.017572	  0.009524	  0.011986	  0.030934	  0.036213	  0.323284	  0.341323	  0.946248	  0.099704	
1.5595	  0.030082	  0.026521	  0.069872	  0.091001	  0.220990	  0.096377	  0.017027	  0.017178	  0.009321	  0.011890	  0.030446	  0.037344	  0.327054	  0.343075	  0.944769	  0.101195	
1.56	  0.030154	  0.026603	  0.069471	  0.090066	  0.219309	  0.095392	  0.017140	  0.016798	  0.009125	  0.011794	  0.029971	  0.038501	  0.330787	  0.344767	  0.943245	  0.102691	
1.5605	  0.030232	  0.026690	  0.069081	  0.089149	  0.217632	  0.094398	  0.017282	  0.016432	  0.008935	  0.011699	  0.029507	  0.039684	  0.334481	  0.346397	  0.941672	  0.104193	
1.561	  0.030314	  0.026781	  0.068703	  0.088248	  0.215960	  0.093395	  0.017450	  0.016080	  0.008753	  0.011605	  0.029053	  0.040893	  0.338132	  0.347963	  0.940050	  0.105700	
1.5615	  0.030402	  0.026877	  0.068336	  0.087364	  0.214294	  0.092385	  0.017647	  0.015743	  0.008578	  0.011511	  0.028612	  0.042128	  0.341739	  0.349464	  0.938375	  0.107211	
1.562	  0.030496	  0.026978	  0.067980	  0.086498	  0.212632	  0.091367	  0.017873	  0.015420	  0.008411	  0.011418	  0.028181	  0.043389	  0.345297	  0.350897	  0.936646	  0.108726	
1.5625	  0.030594	  0.027082	  0.067633	  0.085651	  0.210975	  0.090344	  0.018128	  0.015114	  0.008252	  0.011326	  0.027761	  0.044677	  0.348804	  0.352262	  0.934861	  0.110245	
1.563	  0.030697	  0.027191	  0.067297	  0.084822	  0.209324	  0.089314	  0.018413	  0.014823	  0.008102	  0.011235	  0.027353	  0.045991	  0.352257	  0.353556	  0.933016	  0.111766	
1.5635	  0.030806	  0.027304	  0.066969	  0.084012	  0.207678	  0.088279	  0.018728	  0.014548	  0.007960	  0.011145	  0.026955	  0.047331	  0.355653	  0.354779	  0.931111	  0.113289	
1.564	  0.030919	  0.027421	  0.066650	  0.083221	  0.206037	  0.087240	  0.019073	  0.014291	  0.007827	  0.011055	  0.026568	  0.048698	  0.358988	  0.355930	  0.929141	  0.114814	
1.5645	  0.031037	  0.027541	  0.066340	  0.082450	  0.204403	  0.086197	  0.019450	  0.014051	  0.007704	  0.010967	  0.026191	  0.050092	  0.362260	  0.357008	  0.927106	  0.116341	
1.565	  0.031160	  0.027665	  0.066037	  0.081700	  0.202775	  0.085152	  0.019859	  0.013829	  0.007590	  0.010880	  0.025825	  0.051512	  0.365466	  0.358014	  0.925004	  0.117868	
1.5655	  0.031287	  0.027792	  0.065741	  0.080970	  0.201153	  0.084104	  0.020300	  0.013625	  0.007487	  0.010795	  0.025470	  0.052959	  0.368601	  0.358948	  0.922831	  0.119395	
1.566	  0.031419	  0.027922	  0.065451	  0.080262	  0.199538	  0.083055	  0.020774	  0.013441	  0.007393	  0.010711	  0.025124	  0.054433	  0.371663	  0.359810	  0.920588	  0.120923	
1.5665	  0.031554	  0.028055	  0.065168	  0.079575	  0.197929	  0.082005	  0.021281	  0.013275	  0.007311	  0.010628	  0.024789	  0.055934	  0.374648	  0.360602	  0.918270	  0.122449	
1.567	  0.031694	  0.028190	  0.064890	  0.078910	  0.196329	  0.080955	  0.021822	  0.013130	  0.007240	  0.010547	  0.024464	  0.057462	  0.377555	  0.361325	  0.915878	  0.123975	
1.5675	  0.031838	  0.028328	  0.064617	  0.078268	  0.194735	  0.079906	  0.022398	  0.013006	  0.007180	  0.010468	  0.024149	  0.059017	  0.380378	  0.361979	  0.913408	  0.125499	
1.568	  0.031986	  0.028468	  0.064348	  0.077648	  0.193149	  0.078858	  0.023008	  0.012902	  0.007132	  0.010391	  0.023843	  0.060599	  0.383116	  0.362566	  0.910859	  0.127021	
1.5685	  0.032137	  0.028610	  0.064082	  0.077052	  0.191571	  0.077812	  0.023653	  0.012820	  0.007096	  0.010315	  0.023547	  0.062207	  0.385766	  0.363087	  0.908228	  0.128540	
1.569	  0.032291	  0.028753	  0.063820	  0.076479	  0.190001	  0.076768	  0.024334	  0.012760	  0.007073	  0.010242	  0.023260	  0.063843	  0.388324	  0.363543	  0.905512	  0.130057	
1.5695	  0.032449	  0.028898	  0.063559	  0.075930	  0.188440	  0.075728	  0.025050	  0.012722	  0.007062	  0.010171	  0.022982	  0.065506	  0.390787	  0.363935	  0.902711	  0.131570	
1.57	  0.032610	  0.029044	  0.063300	  0.075405	  0.186887	  0.074692	  0.025804	  0.012707	  0.007064	  0.010102	  0.022714	  0.067196	  0.393154	  0.364264	  0.899822	  0.133079	
1.5705	  0.032774	  0.029190	  0.063042	  0.074906	  0.185342	  0.073659	  0.026595	  0.012716	  0.007080	  0.010035	  0.022454	  0.068912	  0.395421	  0.364532	  0.896844	  0.134584	
1.571	  0.032940	  0.029337	  0.062785	  0.074431	  0.183807	  0.072632	  0.027423	  0.012749	  0.007110	  0.009970	  0.022203	  0.070656	  0.397585	  0.364740	  0.893777	  0.136085	
1.5715	  0.033109	  0.029485	  0.062527	  0.073982	  0.182281	  0.071610	  0.028289	  0.012807	  0.007154	  0.009908	  0.021961	  0.072426	  0.399645	  0.364890	  0.890619	  0.137580	
1.572	  0.033280	  0.029633	  0.062267	  0.073558	  0.180763	  0.070594	  0.029193	  0.012890	  0.007212	  0.009848	  0.021728	  0.074223	  0.401597	  0.364985	  0.887373	  0.139070	
1.5725	  0.033453	  0.029780	  0.062007	  0.073160	  0.179255	  0.069584	  0.030136	  0.012998	  0.007285	  0.009791	  0.021502	  0.076047	  0.403440	  0.365025	  0.884038	  0.140555	
1.573	  0.033628	  0.029926	  0.061743	  0.072789	  0.177755	  0.068580	  0.031118	  0.013133	  0.007373	  0.009737	  0.021285	  0.077897	  0.405170	  0.365015	  0.880616	  0.142033	
1.5735	  0.033804	  0.030072	  0.061478	  0.072444	  0.176265	  0.067584	  0.032140	  0.013294	  0.007476	  0.009686	  0.021076	  0.079774	  0.406786	  0.364955	  0.877109	  0.143505	
1.574	  0.033982	  0.030217	  0.061208	  0.072126	  0.174782	  0.066596	  0.033202	  0.013483	  0.007596	  0.009637	  0.020874	  0.081677	  0.408284	  0.364849	  0.873519	  0.144970	
1.5745	  0.034161	  0.030361	  0.060935	  0.071834	  0.173309	  0.065615	  0.034305	  0.013700	  0.007731	  0.009591	  0.020681	  0.083606	  0.409664	  0.364698	  0.869849	  0.146428	
1.575	  0.034340	  0.030502	  0.060657	  0.071570	  0.171843	  0.064643	  0.035448	  0.013945	  0.007883	  0.009548	  0.020494	  0.085562	  0.410921	  0.364506	  0.866100	  0.147878	
1.5755	  0.034520	  0.030642	  0.060374	  0.071333	  0.170385	  0.063680	  0.036632	  0.014219	  0.008052	  0.009508	  0.020316	  0.087543	  0.412054	  0.364274	  0.862277	  0.149319	
1.576	  0.034701	  0.030780	  0.060085	  0.071124	  0.168935	  0.062725	  0.037858	  0.014523	  0.008237	  0.009472	  0.020144	  0.089551	  0.413060	  0.364004	  0.858380	  0.150752	
1.5765	  0.034881	  0.030915	  0.059790	  0.070942	  0.167492	  0.061780	  0.039125	  0.014857	  0.008441	  0.009438	  0.019979	  0.091583	  0.413939	  0.363698	  0.854412	  0.152176	
1.577	  0.035062	  0.031048	  0.059490	  0.070788	  0.166056	  0.060845	  0.040435	  0.015222	  0.008661	  0.009408	  0.019822	  0.093642	  0.414688	  0.363360	  0.850375	  0.153590	
1.5775	  0.035241	  0.031177	  0.059182	  0.070662	  0.164627	  0.059920	  0.041788	  0.015618	  0.008900	  0.009381	  0.019671	  0.095725	  0.415310	  0.362989	  0.846271	  0.154994	
1.578	  0.035420	  0.031303	  0.058867	  0.070564	  0.163205	  0.059005	  0.043183	  0.016045	  0.009158	  0.009357	  0.019527	  0.097833	  0.415805	  0.362589	  0.842103	  0.156389	
1.5785	  0.035598	  0.031426	  0.058545	  0.070494	  0.161789	  0.058101	  0.044622	  0.016505	  0.009434	  0.009337	  0.019389	  0.099966	  0.416176	  0.362162	  0.837873	  0.157773	
1.579	  0.035774	  0.031545	  0.058215	  0.070452	  0.160380	  0.057208	  0.046104	  0.016998	  0.009729	  0.009320	  0.019257	  0.102123	  0.416426	  0.361708	  0.833584	  0.159148	
